<svg xmlns="http://www.w3.org/2000/svg" viewBox="0 0 1000 1000">
<ellipse cx="490.5" cy="521.7" rx="442.7" ry="476.4" fill="none" stroke="currentColor" stroke-width="16.7"/>
<g fill="currentColor">
<path d="M 485.6 64.4 C 476.7 68.1 512.8 86.3 522.2 100.0 C 531.7 113.7 538.5 115.9 542.2 146.7 C 545.9 177.4 547.0 255.4 544.4 284.4 C 541.9 313.5 533.1 313.7 526.7 321.1 C 520.2 328.5 518.7 328.0 505.6 328.9 C 492.4 329.8 460.7 323.3 447.8 326.7 C 434.8 330.0 430.9 342.0 427.8 348.9 C 424.6 355.7 421.9 353.5 428.9 367.8 C 435.9 382.0 463.7 420.4 470.0 434.4 C 476.3 448.5 470.7 448.0 466.7 452.2 C 462.6 456.5 481.1 460.2 445.6 460.0 C 410.0 459.8 291.3 451.1 253.3 451.1 C 215.4 451.1 229.3 454.4 217.8 460.0 C 206.3 465.6 205.9 463.7 184.4 484.4 C 163.0 505.2 108.5 567.2 88.9 584.4 C 69.3 601.7 68.7 581.3 66.7 587.8 C 64.6 594.3 71.3 619.6 76.7 623.3 C 82.0 627.0 77.4 613.9 98.9 610.0 C 120.4 606.1 166.9 620.0 205.6 600.0 C 244.3 580.0 296.3 508.9 331.1 490.0 C 365.9 471.1 391.7 484.6 414.4 486.7 C 437.2 488.7 453.0 495.4 467.8 502.2 C 482.6 509.1 493.1 516.9 503.3 527.8 C 513.5 538.7 523.5 554.8 528.9 567.8 C 534.3 580.7 534.8 583.3 535.6 605.6 C 536.3 627.8 531.9 679.1 533.3 701.1 C 534.8 723.1 530.7 722.6 544.4 737.8 C 558.1 753.0 597.6 775.6 615.6 792.2 C 633.5 808.9 643.7 822.0 652.2 837.8 C 660.7 853.5 664.4 868.1 666.7 886.7 C 668.9 905.2 660.0 941.3 665.6 948.9 C 671.1 956.5 696.1 979.6 700.0 932.2 C 703.9 884.8 693.0 714.6 688.9 664.4 C 684.8 614.3 705.9 669.1 675.6 631.1 C 645.2 593.1 534.8 471.9 506.7 436.7 C 478.5 401.5 502.0 423.5 506.7 420.0 C 511.3 416.5 520.0 414.8 534.4 415.6 C 548.9 416.3 573.7 418.0 593.3 424.4 C 613.0 430.9 612.8 418.7 652.2 454.4 C 691.7 490.2 789.3 599.4 830.0 638.9 C 870.7 678.3 882.6 691.5 896.7 691.1 C 910.7 690.7 910.2 659.8 914.4 636.7 C 918.7 613.5 923.7 563.7 922.2 552.2 C 920.7 540.7 913.5 564.1 905.6 567.8 C 897.6 571.5 887.2 574.8 874.4 574.4 C 861.7 574.1 841.3 569.8 828.9 565.6 C 816.5 561.3 839.1 589.4 800.0 548.9 C 760.9 508.3 630.2 366.1 594.4 322.2 C 558.7 278.3 585.6 310.9 585.6 285.6 C 585.6 260.2 588.1 196.3 594.4 170.0 C 600.7 143.7 610.9 136.9 623.3 127.8 C 635.7 118.7 676.9 123.9 668.9 115.6 C 660.9 107.2 606.1 86.3 575.6 77.8 C 545.0 69.3 494.4 60.7 485.6 64.4 Z"/>
<path d="M 108.9 283.3 C 106.7 287.8 108.3 285.2 108.9 285.6 C 109.4 285.9 107.8 287.0 112.2 285.6 C 116.7 284.1 125.4 278.3 135.6 276.7 C 145.7 275.0 165.2 275.4 173.3 275.6 C 181.5 275.7 180.6 276.5 184.4 277.8 C 188.3 279.1 193.0 282.0 196.7 283.3 C 200.4 284.6 203.5 283.9 206.7 285.6 C 209.8 287.2 213.1 291.9 215.6 293.3 C 218.0 294.8 213.7 290.4 221.1 294.4 C 228.5 298.5 253.0 313.9 260.0 317.8 C 267.0 321.7 261.1 316.7 263.3 317.8 C 265.6 318.9 269.4 322.8 273.3 324.4 C 277.2 326.1 281.5 325.9 286.7 327.8 C 291.9 329.6 299.3 333.7 304.4 335.6 C 309.6 337.4 314.6 338.3 317.8 338.9 C 320.9 339.4 321.5 338.5 323.3 338.9 C 325.2 339.3 324.4 340.7 328.9 341.1 C 333.3 341.5 345.7 341.5 350.0 341.1 C 354.3 340.7 353.1 339.3 354.4 338.9 C 355.7 338.5 356.1 339.4 357.8 338.9 C 359.4 338.3 362.6 336.9 364.4 335.6 C 366.3 334.3 367.6 333.0 368.9 331.1 C 370.2 329.3 372.0 328.9 372.2 324.4 C 372.4 320.0 371.1 309.4 370.0 304.4 C 368.9 299.4 368.1 298.7 365.6 294.4 C 363.0 290.2 356.7 282.6 354.4 278.9 C 352.2 275.2 353.5 273.9 352.2 272.2 C 350.9 270.6 348.5 270.4 346.7 268.9 C 344.8 267.4 342.4 265.0 341.1 263.3 C 339.8 261.7 344.6 264.8 338.9 258.9 C 333.1 253.0 312.6 233.1 306.7 227.8 C 300.7 222.4 305.6 228.3 303.3 226.7 C 301.1 225.0 296.1 219.8 293.3 217.8 C 290.6 215.7 288.7 215.9 286.7 214.4 C 284.6 213.0 283.1 210.2 281.1 208.9 C 279.1 207.6 276.9 208.1 274.4 206.7 C 272.0 205.2 269.1 201.5 266.7 200.0 C 264.3 198.5 262.6 199.4 260.0 197.8 C 257.4 196.1 253.5 191.5 251.1 190.0 C 248.7 188.5 248.9 190.9 245.6 188.9 C 242.2 186.9 235.0 181.3 231.1 177.8 C 227.2 174.3 224.4 172.0 222.2 167.8 C 220.0 163.5 219.4 154.4 217.8 152.2 C 216.1 150.0 215.9 151.7 212.2 154.4 C 208.5 157.2 203.7 160.9 195.6 168.9 C 187.4 176.9 172.2 192.2 163.3 202.2 C 154.4 212.2 149.1 219.4 142.2 228.9 C 135.4 238.3 127.8 249.8 122.2 258.9 C 116.7 268.0 111.1 278.9 108.9 283.3 Z"/>
</g></svg>